# xmcd
#
# Track frame offsets:
#	150
#	18767
#	35599
#	55124
#	78016
#	91372
#	110077
#	130794
#	144936
#	161338
#	175645
#	196886
#
# Disc length: 2756 seconds
#
# Revision: 1
# Processed by: cddbd v1.5.2PL0 Copyright (c) Steve Scherf et al.
# Submitted via: audiograbber 1.83.01
#
DISCID=890ac20c
DTITLE=Wanda Johnson - Call Me Miss Wanda
DYEAR=1900
DGENRE=
TTITLE0=Can You Handle This ?
TTITLE1=The  River
TTITLE2=Always
TTITLE3=If I Rise in the Morning
TTITLE4=I Need You
TTITLE5=Finally Home
TTITLE6=I Apologize
TTITLE7=Airport Road
TTITLE8=Bad Case of the Blues
TTITLE9=I'm Through Wiith You
TTITLE10=Switch Me Over
TTITLE11=Breakin' Out
EXTD=
EXTT0=
EXTT1=
EXTT2=
EXTT3=
EXTT4=
EXTT5=
EXTT6=
EXTT7=
EXTT8=
EXTT9=
EXTT10=
EXTT11=
PLAYORDER=
